<mxfile host="app.diagrams.net" agent="Mozilla/5.0 (Windows NT 10.0; Win64; x64) AppleWebKit/537.36 (KHTML, like Gecko) Chrome/135.0.0.0 Safari/537.36" version="26.2.14">
  <diagram name="PÃ¡gina-1" id="vKeXZ0dfRa4-k7OgbDG0">
    <mxGraphModel dx="1426" dy="1946" grid="1" gridSize="10" guides="1" tooltips="1" connect="1" arrows="1" fold="1" page="1" pageScale="1" pageWidth="827" pageHeight="1169" math="0" shadow="0">
      <root>
        <mxCell id="0" />
        <mxCell id="1" parent="0" />
        <mxCell id="UYY5sC6cVJ_Iu2akrQRA-1" value="" style="edgeStyle=orthogonalEdgeStyle;rounded=0;orthogonalLoop=1;jettySize=auto;html=1;" edge="1" parent="1" source="UYY5sC6cVJ_Iu2akrQRA-28">
          <mxGeometry relative="1" as="geometry">
            <mxPoint x="400" y="160" as="targetPoint" />
          </mxGeometry>
        </mxCell>
        <mxCell id="UYY5sC6cVJ_Iu2akrQRA-2" value="INICIO" style="strokeWidth=2;html=1;shape=mxgraph.flowchart.start_1;whiteSpace=wrap;fillColor=#d5e8d4;strokeColor=#82b366;" vertex="1" parent="1">
          <mxGeometry x="350" y="-30" width="100" height="60" as="geometry" />
        </mxCell>
        <mxCell id="UYY5sC6cVJ_Iu2akrQRA-5" value="" style="edgeStyle=orthogonalEdgeStyle;rounded=0;orthogonalLoop=1;jettySize=auto;html=1;" edge="1" parent="1" target="UYY5sC6cVJ_Iu2akrQRA-8">
          <mxGeometry relative="1" as="geometry">
            <mxPoint x="400" y="220" as="sourcePoint" />
          </mxGeometry>
        </mxCell>
        <mxCell id="UYY5sC6cVJ_Iu2akrQRA-7" value="" style="edgeStyle=orthogonalEdgeStyle;rounded=0;orthogonalLoop=1;jettySize=auto;html=1;" edge="1" parent="1" source="UYY5sC6cVJ_Iu2akrQRA-8">
          <mxGeometry relative="1" as="geometry">
            <mxPoint x="400" y="340" as="targetPoint" />
          </mxGeometry>
        </mxCell>
        <mxCell id="UYY5sC6cVJ_Iu2akrQRA-18" style="edgeStyle=orthogonalEdgeStyle;rounded=0;orthogonalLoop=1;jettySize=auto;html=1;exitX=1;exitY=0.5;exitDx=0;exitDy=0;entryX=0.5;entryY=0;entryDx=0;entryDy=0;" edge="1" parent="1" source="UYY5sC6cVJ_Iu2akrQRA-8" target="UYY5sC6cVJ_Iu2akrQRA-16">
          <mxGeometry relative="1" as="geometry">
            <Array as="points">
              <mxPoint x="505" y="280" />
              <mxPoint x="505" y="420" />
              <mxPoint x="390" y="420" />
            </Array>
          </mxGeometry>
        </mxCell>
        <mxCell id="UYY5sC6cVJ_Iu2akrQRA-8" value="I=1, I &amp;lt;=TAMANHO, I++" style="shape=hexagon;perimeter=hexagonPerimeter2;whiteSpace=wrap;html=1;fixedSize=1;fillColor=#fff2cc;strokeColor=#d6b656;" vertex="1" parent="1">
          <mxGeometry x="315" y="260" width="170" height="40" as="geometry" />
        </mxCell>
        <mxCell id="UYY5sC6cVJ_Iu2akrQRA-12" value="TAMANHO" style="html=1;strokeWidth=2;shape=manualInput;whiteSpace=wrap;rounded=1;size=26;arcSize=11;fillColor=#dae8fc;strokeColor=#6c8ebf;" vertex="1" parent="1">
          <mxGeometry x="350" y="160" width="100" height="60" as="geometry" />
        </mxCell>
        <mxCell id="UYY5sC6cVJ_Iu2akrQRA-15" style="edgeStyle=orthogonalEdgeStyle;rounded=0;orthogonalLoop=1;jettySize=auto;html=1;exitX=0;exitY=0.75;exitDx=0;exitDy=0;entryX=0;entryY=0.5;entryDx=0;entryDy=0;" edge="1" parent="1" source="UYY5sC6cVJ_Iu2akrQRA-13" target="UYY5sC6cVJ_Iu2akrQRA-8">
          <mxGeometry relative="1" as="geometry" />
        </mxCell>
        <mxCell id="UYY5sC6cVJ_Iu2akrQRA-13" value="A[I]" style="html=1;strokeWidth=2;shape=manualInput;whiteSpace=wrap;rounded=1;size=26;arcSize=11;fillColor=#dae8fc;strokeColor=#6c8ebf;" vertex="1" parent="1">
          <mxGeometry x="350" y="340" width="100" height="60" as="geometry" />
        </mxCell>
        <mxCell id="UYY5sC6cVJ_Iu2akrQRA-20" value="" style="edgeStyle=orthogonalEdgeStyle;rounded=0;orthogonalLoop=1;jettySize=auto;html=1;" edge="1" parent="1" source="UYY5sC6cVJ_Iu2akrQRA-16" target="UYY5sC6cVJ_Iu2akrQRA-19">
          <mxGeometry relative="1" as="geometry" />
        </mxCell>
        <mxCell id="UYY5sC6cVJ_Iu2akrQRA-16" value="MAIOR = A[1]&lt;div&gt;B[TAMANHO]&lt;/div&gt;" style="rounded=1;whiteSpace=wrap;html=1;absoluteArcSize=1;arcSize=14;strokeWidth=2;fillColor=#f5f5f5;fontColor=#333333;strokeColor=#666666;" vertex="1" parent="1">
          <mxGeometry x="340" y="450" width="100" height="60" as="geometry" />
        </mxCell>
        <mxCell id="UYY5sC6cVJ_Iu2akrQRA-22" value="" style="edgeStyle=orthogonalEdgeStyle;rounded=0;orthogonalLoop=1;jettySize=auto;html=1;" edge="1" parent="1" source="UYY5sC6cVJ_Iu2akrQRA-19" target="UYY5sC6cVJ_Iu2akrQRA-21">
          <mxGeometry relative="1" as="geometry" />
        </mxCell>
        <mxCell id="UYY5sC6cVJ_Iu2akrQRA-19" value="I=2, I &amp;lt;=TAMANHO, I++" style="shape=hexagon;perimeter=hexagonPerimeter2;whiteSpace=wrap;html=1;fixedSize=1;fillColor=#fff2cc;strokeColor=#d6b656;" vertex="1" parent="1">
          <mxGeometry x="305" y="550" width="170" height="40" as="geometry" />
        </mxCell>
        <mxCell id="UYY5sC6cVJ_Iu2akrQRA-24" value="" style="edgeStyle=orthogonalEdgeStyle;rounded=0;orthogonalLoop=1;jettySize=auto;html=1;" edge="1" parent="1" source="UYY5sC6cVJ_Iu2akrQRA-21" target="UYY5sC6cVJ_Iu2akrQRA-23">
          <mxGeometry relative="1" as="geometry" />
        </mxCell>
        <mxCell id="UYY5sC6cVJ_Iu2akrQRA-25" value="S" style="edgeLabel;html=1;align=center;verticalAlign=middle;resizable=0;points=[];" vertex="1" connectable="0" parent="UYY5sC6cVJ_Iu2akrQRA-24">
          <mxGeometry x="-0.2333" relative="1" as="geometry">
            <mxPoint as="offset" />
          </mxGeometry>
        </mxCell>
        <mxCell id="UYY5sC6cVJ_Iu2akrQRA-27" value="" style="edgeStyle=orthogonalEdgeStyle;rounded=0;orthogonalLoop=1;jettySize=auto;html=1;" edge="1" parent="1" source="UYY5sC6cVJ_Iu2akrQRA-21" target="UYY5sC6cVJ_Iu2akrQRA-26">
          <mxGeometry relative="1" as="geometry" />
        </mxCell>
        <mxCell id="UYY5sC6cVJ_Iu2akrQRA-33" value="N" style="edgeLabel;html=1;align=center;verticalAlign=middle;resizable=0;points=[];" vertex="1" connectable="0" parent="UYY5sC6cVJ_Iu2akrQRA-27">
          <mxGeometry x="-0.1667" relative="1" as="geometry">
            <mxPoint as="offset" />
          </mxGeometry>
        </mxCell>
        <mxCell id="UYY5sC6cVJ_Iu2akrQRA-21" value="A[I]&lt;div&gt;&amp;gt;&lt;/div&gt;&lt;div&gt;MAIOR&lt;/div&gt;" style="rhombus;whiteSpace=wrap;html=1;fillColor=#ffe6cc;strokeColor=#d79b00;" vertex="1" parent="1">
          <mxGeometry x="350" y="650" width="80" height="80" as="geometry" />
        </mxCell>
        <mxCell id="UYY5sC6cVJ_Iu2akrQRA-23" value="&lt;div&gt;B[I-1] = MAIOR&lt;/div&gt;MAIOR = A[I]" style="whiteSpace=wrap;html=1;fillColor=#f5f5f5;strokeColor=#666666;fontColor=#333333;" vertex="1" parent="1">
          <mxGeometry x="170" y="660" width="120" height="60" as="geometry" />
        </mxCell>
        <mxCell id="UYY5sC6cVJ_Iu2akrQRA-26" value="B[I-1] = A[I]" style="whiteSpace=wrap;html=1;fillColor=#f5f5f5;strokeColor=#666666;fontColor=#333333;" vertex="1" parent="1">
          <mxGeometry x="490" y="660" width="120" height="60" as="geometry" />
        </mxCell>
        <mxCell id="UYY5sC6cVJ_Iu2akrQRA-29" value="" style="edgeStyle=orthogonalEdgeStyle;rounded=0;orthogonalLoop=1;jettySize=auto;html=1;" edge="1" parent="1" source="UYY5sC6cVJ_Iu2akrQRA-2" target="UYY5sC6cVJ_Iu2akrQRA-28">
          <mxGeometry relative="1" as="geometry">
            <mxPoint x="400" y="30" as="sourcePoint" />
            <mxPoint x="400" y="160" as="targetPoint" />
          </mxGeometry>
        </mxCell>
        <mxCell id="UYY5sC6cVJ_Iu2akrQRA-28" value="MAIOR = 0" style="rounded=1;whiteSpace=wrap;html=1;absoluteArcSize=1;arcSize=14;strokeWidth=2;fillColor=#f5f5f5;fontColor=#333333;strokeColor=#666666;" vertex="1" parent="1">
          <mxGeometry x="350" y="70" width="100" height="60" as="geometry" />
        </mxCell>
        <mxCell id="UYY5sC6cVJ_Iu2akrQRA-34" style="edgeStyle=orthogonalEdgeStyle;rounded=0;orthogonalLoop=1;jettySize=auto;html=1;exitX=0.5;exitY=1;exitDx=0;exitDy=0;exitPerimeter=0;entryX=0;entryY=0.5;entryDx=0;entryDy=0;" edge="1" parent="1" source="UYY5sC6cVJ_Iu2akrQRA-30" target="UYY5sC6cVJ_Iu2akrQRA-19">
          <mxGeometry relative="1" as="geometry">
            <Array as="points">
              <mxPoint x="390" y="830" />
              <mxPoint x="120" y="830" />
              <mxPoint x="120" y="570" />
            </Array>
          </mxGeometry>
        </mxCell>
        <mxCell id="UYY5sC6cVJ_Iu2akrQRA-30" value="" style="verticalLabelPosition=bottom;verticalAlign=top;html=1;shape=mxgraph.flowchart.on-page_reference;fillColor=#f5f5f5;gradientColor=#b3b3b3;strokeColor=#666666;" vertex="1" parent="1">
          <mxGeometry x="375" y="780" width="30" height="30" as="geometry" />
        </mxCell>
        <mxCell id="UYY5sC6cVJ_Iu2akrQRA-31" style="edgeStyle=orthogonalEdgeStyle;rounded=0;orthogonalLoop=1;jettySize=auto;html=1;exitX=0.5;exitY=1;exitDx=0;exitDy=0;entryX=0;entryY=0.5;entryDx=0;entryDy=0;entryPerimeter=0;" edge="1" parent="1" source="UYY5sC6cVJ_Iu2akrQRA-23" target="UYY5sC6cVJ_Iu2akrQRA-30">
          <mxGeometry relative="1" as="geometry" />
        </mxCell>
        <mxCell id="UYY5sC6cVJ_Iu2akrQRA-32" style="edgeStyle=orthogonalEdgeStyle;rounded=0;orthogonalLoop=1;jettySize=auto;html=1;exitX=0.5;exitY=1;exitDx=0;exitDy=0;entryX=1;entryY=0.5;entryDx=0;entryDy=0;entryPerimeter=0;" edge="1" parent="1" source="UYY5sC6cVJ_Iu2akrQRA-26" target="UYY5sC6cVJ_Iu2akrQRA-30">
          <mxGeometry relative="1" as="geometry" />
        </mxCell>
        <mxCell id="UYY5sC6cVJ_Iu2akrQRA-38" value="" style="edgeStyle=orthogonalEdgeStyle;rounded=0;orthogonalLoop=1;jettySize=auto;html=1;" edge="1" parent="1" source="UYY5sC6cVJ_Iu2akrQRA-35" target="UYY5sC6cVJ_Iu2akrQRA-37">
          <mxGeometry relative="1" as="geometry" />
        </mxCell>
        <mxCell id="UYY5sC6cVJ_Iu2akrQRA-35" value="" style="verticalLabelPosition=bottom;verticalAlign=top;html=1;shape=mxgraph.flowchart.on-page_reference;fillColor=#f5f5f5;gradientColor=#b3b3b3;strokeColor=#666666;" vertex="1" parent="1">
          <mxGeometry x="375" y="910" width="30" height="30" as="geometry" />
        </mxCell>
        <mxCell id="UYY5sC6cVJ_Iu2akrQRA-36" style="edgeStyle=orthogonalEdgeStyle;rounded=0;orthogonalLoop=1;jettySize=auto;html=1;exitX=1;exitY=0.5;exitDx=0;exitDy=0;entryX=1;entryY=0.5;entryDx=0;entryDy=0;entryPerimeter=0;" edge="1" parent="1" source="UYY5sC6cVJ_Iu2akrQRA-19" target="UYY5sC6cVJ_Iu2akrQRA-35">
          <mxGeometry relative="1" as="geometry">
            <Array as="points">
              <mxPoint x="650" y="570" />
              <mxPoint x="650" y="925" />
            </Array>
          </mxGeometry>
        </mxCell>
        <mxCell id="UYY5sC6cVJ_Iu2akrQRA-37" value="FIM" style="strokeWidth=2;html=1;shape=mxgraph.flowchart.start_1;whiteSpace=wrap;fillColor=#d5e8d4;strokeColor=#82b366;" vertex="1" parent="1">
          <mxGeometry x="340" y="990" width="100" height="60" as="geometry" />
        </mxCell>
      </root>
    </mxGraphModel>
  </diagram>
</mxfile>
